<?xml version="1.0" standalone="no"?>
<!DOCTYPE svg PUBLIC "-//W3C//DTD SVG 20010904//EN"
 "http://www.w3.org/TR/2001/REC-SVG-20010904/DTD/svg10.dtd">
<svg version="1.0" xmlns="http://www.w3.org/2000/svg"
 width="700.000000pt" height="700.000000pt" viewBox="0 0 700.000000 700.000000"
 preserveAspectRatio="xMidYMid meet">
<metadata>
Created by potrace 1.14, written by Peter Selinger 2001-2017
</metadata>
<g transform="translate(0.000000,700.000000) scale(0.100000,-0.100000)"
fill="#000000" stroke="none">
<path d="M3269 6886 c-2 -2 -42 -7 -89 -11 -47 -4 -94 -9 -105 -11 -11 -2 -40
-6 -65 -9 -140 -16 -445 -90 -615 -148 -251 -87 -512 -216 -760 -376 -64 -41
-254 -180 -281 -206 -6 -5 -36 -30 -65 -55 -144 -119 -389 -382 -505 -540
-296 -404 -510 -872 -598 -1310 -3 -14 -7 -35 -10 -46 -2 -12 -7 -37 -10 -55
-3 -19 -8 -43 -10 -55 -2 -12 -7 -45 -11 -74 -4 -29 -9 -62 -11 -74 -26 -128
-25 -653 1 -836 2 -14 6 -45 10 -70 89 -625 376 -1252 792 -1730 62 -72 273
-283 343 -344 133 -115 367 -282 526 -374 246 -142 636 -301 852 -347 9 -2 47
-11 84 -19 75 -18 198 -41 271 -51 27 -4 56 -8 65 -10 105 -19 608 -28 737
-12 33 4 80 10 104 12 179 18 500 93 701 163 291 103 612 270 860 450 58 42
107 78 110 82 3 3 28 23 55 45 116 92 338 309 430 420 27 33 52 62 55 65 17
14 146 190 202 276 106 161 221 375 282 524 15 36 33 79 41 95 54 119 149 455
181 640 22 132 24 143 40 280 4 33 8 173 8 310 1 273 -5 366 -40 575 -42 255
-140 586 -241 810 -34 75 -132 268 -163 320 -18 30 -38 64 -44 75 -101 179
-299 429 -496 625 -150 151 -200 194 -385 338 -174 134 -459 296 -709 402
-227 96 -575 195 -761 216 -22 2 -49 6 -60 9 -11 2 -40 7 -65 10 -25 3 -63 8
-85 11 -47 6 -561 15 -566 10z m429 -330 c106 -7 211 -19 342 -41 518 -87
1064 -350 1476 -710 163 -142 290 -280 433 -470 278 -369 475 -811 556 -1250
10 -49 18 -97 20 -105 41 -217 47 -601 14 -855 -16 -126 -19 -144 -41 -249
-212 -1042 -982 -1918 -1994 -2269 -95 -33 -292 -89 -359 -102 -367 -71 -708
-86 -1015 -44 -126 17 -132 18 -218 34 -780 149 -1493 619 -1941 1280 -118
174 -189 303 -296 540 -51 112 -152 437 -170 545 -3 19 -8 42 -10 50 -12 44
-40 250 -50 370 -6 80 -7 355 -1 430 6 65 17 171 21 200 2 14 6 43 10 65 45
307 156 648 305 932 394 750 1059 1297 1865 1533 77 22 154 43 170 46 17 2 64
12 105 20 41 8 89 17 105 19 17 3 63 9 103 15 40 5 128 13 195 16 67 4 123 7
124 8 3 2 155 -3 251 -8z"/>
</g>
</svg>
