<?xml version="1.0" standalone="no"?>
<!DOCTYPE svg PUBLIC "-//W3C//DTD SVG 20010904//EN"
 "http://www.w3.org/TR/2001/REC-SVG-20010904/DTD/svg10.dtd">
<svg version="1.0" xmlns="http://www.w3.org/2000/svg"
 width="700.000000pt" height="700.000000pt" viewBox="0 0 700.000000 700.000000"
 preserveAspectRatio="xMidYMid meet">
<metadata>
Created by potrace 1.14, written by Peter Selinger 2001-2017
</metadata>
<g transform="translate(0.000000,700.000000) scale(0.100000,-0.100000)"
fill="#000000" stroke="none">
<path d="M640 6559 c-255 -21 -472 -171 -580 -400 -62 -133 -58 34 -59 -2659
-1 -2209 1 -2471 15 -2525 84 -320 367 -539 693 -536 36 0 77 3 91 6 14 3 36
7 49 10 182 36 434 166 687 353 274 203 625 534 925 872 73 83 132 153 488
585 203 246 210 254 373 450 68 83 171 209 229 281 58 71 113 139 122 150 9
10 78 95 152 188 l136 169 -28 31 c-15 17 -30 33 -33 36 -8 8 -154 183 -167
201 -12 15 19 57 242 324 18 22 73 87 120 145 48 58 97 116 109 130 11 14 50
61 86 105 35 44 67 82 70 85 3 3 25 30 50 60 25 30 47 57 50 60 8 7 184 222
192 234 4 6 15 -1 28 -17 12 -15 27 -33 33 -40 7 -6 32 -37 57 -67 25 -30 55
-66 66 -80 12 -14 63 -74 114 -135 50 -60 101 -121 113 -135 23 -27 264 -316
282 -338 5 -7 17 -21 25 -30 107 -118 226 -274 250 -328 52 -114 63 -296 25
-402 -17 -48 -64 -144 -74 -152 -4 -3 -22 -25 -41 -50 -19 -25 -37 -47 -40
-50 -3 -3 -44 -52 -90 -110 -47 -58 -92 -114 -102 -125 -27 -33 -217 -265
-298 -365 -41 -51 -80 -98 -85 -104 -6 -6 -38 -45 -70 -86 -33 -41 -62 -77
-65 -80 -5 -4 -89 -107 -123 -150 -15 -18 -242 -297 -265 -325 -10 -11 -83
-101 -164 -200 -81 -99 -212 -260 -291 -357 -163 -199 -179 -223 -200 -293
-54 -185 59 -385 249 -441 55 -16 144 -17 1209 -17 633 0 1174 3 1204 7 68 8
193 50 251 83 131 75 230 183 292 320 61 136 58 -28 58 2663 l0 2466 -24 74
c-44 141 -89 215 -184 308 -197 191 -455 250 -727 165 -169 -53 -391 -174
-595 -326 -207 -153 -369 -297 -610 -537 -133 -134 -301 -312 -356 -380 -16
-19 -34 -41 -41 -48 -7 -7 -29 -34 -50 -60 -21 -26 -44 -53 -51 -61 -7 -7 -48
-57 -91 -110 -95 -115 -279 -338 -332 -401 -20 -25 -88 -106 -149 -180 -61
-74 -120 -145 -130 -157 -10 -12 -98 -120 -196 -240 -97 -120 -191 -236 -209
-258 -19 -22 -74 -91 -124 -153 l-90 -112 119 -141 120 -141 -52 -67 c-29 -36
-55 -68 -58 -71 -8 -8 -62 -72 -100 -120 -36 -45 -125 -152 -191 -230 -21 -25
-84 -102 -141 -171 -250 -306 -393 -478 -398 -478 -3 0 -35 37 -72 82 -36 45
-80 98 -96 117 -16 19 -93 112 -171 205 -78 94 -150 179 -159 190 -22 26 -272
324 -292 348 -8 10 -26 31 -38 45 -52 59 -113 147 -133 191 -71 159 -61 363
24 505 17 30 127 170 242 311 116 141 220 269 231 284 27 32 359 438 382 466
9 11 35 43 57 70 21 28 42 52 45 55 3 3 64 77 135 165 71 88 134 165 140 171
5 6 24 28 40 49 17 22 143 177 281 346 138 168 260 322 272 341 46 75 60 197
32 284 -42 129 -158 230 -285 250 -60 9 -2228 12 -2335 3z"/>
</g>
</svg>
